{
  "source": "C:\\Users\\Peter\\Desktop\\stuff\\MIUN\\quantitative_research\\video_compression\\videos\\BVI-HD\\BVI-HD_CDVL_videos\\ORIG\\CalmingWater_1920x1080_60fps.mp4",
  "output": "C:\\Users\\Peter\\Desktop\\stuff\\MIUN\\quantitative_research\\video_compression\\compressed_videos\\BVI-HD\\h264\\2\\CalmingWater_1920x1080_60fps_h264.mp4",
  "codec": "h264",
  "ok": "Input #0, mov,mp4,m4a,3gp,3g2,mj2, from 'C:\\Users\\Peter\\Desktop\\stuff\\MIUN\\quantitative_research\\video_compression\\videos\\BVI-HD\\BVI-HD_CDVL_videos\\ORIG\\CalmingWater_1920x1080_60fps.mp4':\n  Metadata:\n    major_brand     : isom\n    minor_version   : 512\n    compatible_brands: isomiso2avc1mp41\n    encoder         : Lavf54.28.101\n  Duration: 00:00:05.00, start: 0.000000, bitrate: 623787 kb/s\n  Stream #0:0[0x1](und): Video: h264 (High 4:4:4 Predictive) (avc1 / 0x31637661), yuv420p(progressive), 1920x1080, 623782 kb/s, 60 fps, 60 tbr, 60 tbn (default)\n    Metadata:\n      handler_name    : VideoHandler\n      vendor_id       : [0][0][0][0]\n[out#0/mp4 @ 000001c4cc169b40] Codec AVOption b:a (set bitrate (in bits/s)) has not been used for any stream. The most likely reason is either wrong type (e.g. a video option with no video streams) or that it is a private option of some decoder which was not actually used for any stream.\nStream mapping:\n  Stream #0:0 -> #0:0 (h264 (native) -> h264 (libx264))\nPress [q] to stop, [?] for help\n[libx264 @ 000001c4ce240300] using cpu capabilities: MMX2 SSE2Fast SSSE3 SSE4.2 AVX FMA3 BMI2 AVX2\n[libx264 @ 000001c4ce240300] profile High, level 5.0, 4:2:0, 8-bit\n[libx264 @ 000001c4ce240300] 264 - core 165 r3222 b35605a - H.264/MPEG-4 AVC codec - Copyleft 2003-2025 - http://www.videolan.org/x264.html - options: cabac=1 ref=5 deblock=1:0:0 analyse=0x3:0x113 me=hex subme=8 psy=1 psy_rd=1.00:0.00 mixed_ref=1 me_range=16 chroma_me=1 trellis=2 8x8dct=1 cqm=0 deadzone=21,11 fast_pskip=1 chroma_qp_offset=-2 threads=18 lookahead_threads=3 sliced_threads=0 nr=0 decimate=1 interlaced=0 bluray_compat=0 constrained_intra=0 bframes=3 b_pyramid=2 b_adapt=1 b_bias=0 direct=3 weightb=1 open_gop=0 weightp=2 keyint=250 keyint_min=25 scenecut=40 intra_refresh=0 rc_lookahead=50 rc=cbr mbtree=1 bitrate=2000 ratetol=1.0 qcomp=0.60 qpmin=0 qpmax=69 qpstep=4 vbv_maxrate=2000 vbv_bufsize=2000 nal_hrd=none filler=0 ip_ratio=1.40 aq=1:1.00\nOutput #0, mp4, to 'C:\\Users\\Peter\\Desktop\\stuff\\MIUN\\quantitative_research\\video_compression\\compressed_videos\\BVI-HD\\h264\\2\\CalmingWater_1920x1080_60fps_h264.mp4':\n  Metadata:\n    major_brand     : isom\n    minor_version   : 512\n    compatible_brands: isomiso2avc1mp41\n    encoder         : Lavf62.3.100\n  Stream #0:0(und): Video: h264 (avc1 / 0x31637661), yuv420p(tv, progressive), 1920x1080, q=2-31, 2000 kb/s, 60 fps, 15360 tbn (default)\n    Metadata:\n      encoder         : Lavc62.11.100 libx264\n      handler_name    : VideoHandler\n      vendor_id       : [0][0][0][0]\n    Side data:\n      cpb: bitrate max/min/avg: 2000000/0/2000000 buffer size: 2000000 vbv_delay: N/A\nframe=    0 fps=0.0 q=0.0 size=       0KiB time=N/A bitrate=N/A speed=N/A elapsed=0:00:00.51    \nframe=    0 fps=0.0 q=0.0 size=       0KiB time=N/A bitrate=N/A speed=N/A elapsed=0:00:01.05    \nframe=    0 fps=0.0 q=0.0 size=       0KiB time=N/A bitrate=N/A speed=N/A elapsed=0:00:01.57    \nframe=    0 fps=0.0 q=0.0 size=       0KiB time=N/A bitrate=N/A speed=N/A elapsed=0:00:02.10    \nframe=   12 fps=4.6 q=53.0 size=       0KiB time=00:00:00.16 bitrate=   2.3kbits/s speed=0.0635x elapsed=0:00:02.62    \nframe=   26 fps=8.3 q=53.0 size=       0KiB time=00:00:00.38 bitrate=   1.0kbits/s speed=0.122x elapsed=0:00:03.13    \nframe=   39 fps= 11 q=53.0 size=       0KiB time=00:00:00.61 bitrate=   0.6kbits/s speed=0.168x elapsed=0:00:03.66    \nframe=   55 fps= 13 q=54.0 size=       0KiB time=00:00:00.86 bitrate=   0.4kbits/s speed=0.207x elapsed=0:00:04.19    \nframe=   68 fps= 14 q=54.0 size=     256KiB time=00:00:01.10 bitrate=1906.9kbits/s speed=0.234x elapsed=0:00:04.71    \nframe=   81 fps= 15 q=55.0 size=     256KiB time=00:00:01.31 bitrate=1593.1kbits/s speed=0.251x elapsed=0:00:05.24    \nframe=   95 fps= 16 q=55.0 size=     256KiB time=00:00:01.55 bitrate=1353.2kbits/s speed=0.268x elapsed=0:00:05.77    \nframe=  108 fps= 17 q=55.0 size=     256KiB time=00:00:01.76 bitrate=1187.3kbits/s speed=0.281x elapsed=0:00:06.29    \nframe=  123 fps= 18 q=55.0 size=     512KiB time=00:00:02.01 bitrate=2080.0kbits/s speed=0.295x elapsed=0:00:06.83    \nframe=  137 fps= 19 q=56.0 size=     512KiB time=00:00:02.23 bitrate=1878.2kbits/s speed=0.304x elapsed=0:00:07.35    \nframe=  151 fps= 19 q=56.0 size=     512KiB time=00:00:02.48 bitrate=1689.1kbits/s speed=0.315x elapsed=0:00:07.88    \nframe=  166 fps= 20 q=56.0 size=     512KiB time=00:00:02.73 bitrate=1534.6kbits/s speed=0.326x elapsed=0:00:08.39    \nframe=  181 fps= 20 q=56.0 size=     768KiB time=00:00:02.98 bitrate=2109.0kbits/s speed=0.335x elapsed=0:00:08.91    \nframe=  195 fps= 21 q=56.0 size=     768KiB time=00:00:03.21 bitrate=1956.0kbits/s speed=0.341x elapsed=0:00:09.42    \nframe=  209 fps= 21 q=56.0 size=     768KiB time=00:00:03.45 bitrate=1823.7kbits/s speed=0.347x elapsed=0:00:09.94    \nframe=  226 fps= 22 q=55.0 size=     768KiB time=00:00:03.73 bitrate=1685.3kbits/s speed=0.356x elapsed=0:00:10.48    \nframe=  261 fps= 24 q=55.0 size=    1024KiB time=00:00:04.28 bitrate=1958.5kbits/s speed=0.389x elapsed=0:00:10.99    \n[mp4 @ 000001c4cc1f7ac0] Starting second pass: moving the moov atom to the beginning of the file\n[out#0/mp4 @ 000001c4cc169b40] video:1219KiB audio:0KiB subtitle:0KiB other streams:0KiB global headers:0KiB muxing overhead: 0.207488%\nframe=  300 fps= 26 q=-1.0 Lsize=    1222KiB time=00:00:04.96 bitrate=2015.6kbits/s speed=0.436x elapsed=0:00:11.37    \n[libx264 @ 000001c4ce240300] frame I:2     Avg QP:50.91  size:  8728\n[libx264 @ 000001c4ce240300] frame P:252   Avg QP:50.99  size:  4552\n[libx264 @ 000001c4ce240300] frame B:46    Avg QP:51.00  size:  1812\n[libx264 @ 000001c4ce240300] consecutive B-frames: 79.3%  0.7%  0.0% 20.0%\n[libx264 @ 000001c4ce240300] mb I  I16..4: 70.9% 29.1%  0.0%\n[libx264 @ 000001c4ce240300] mb P  I16..4: 22.8%  1.3%  0.0%  P16..4: 13.3%  0.3%  1.1%  0.0%  0.0%    skip:61.2%\n[libx264 @ 000001c4ce240300] mb B  I16..4:  0.2%  0.1%  0.0%  B16..8: 16.6%  0.1%  0.0%  direct: 1.5%  skip:81.6%  L0:49.5% L1:49.9% BI: 0.7%\n[libx264 @ 000001c4ce240300] 8x8 transform intra:6.0% inter:98.8%\n[libx264 @ 000001c4ce240300] direct mvs  spatial:87.0% temporal:13.0%\n[libx264 @ 000001c4ce240300] coded y,uvDC,uvAC intra: 0.2% 39.3% 0.0% inter: 0.2% 6.5% 0.0%\n[libx264 @ 000001c4ce240300] i16 v,h,dc,p: 49% 35%  5% 12%\n[libx264 @ 000001c4ce240300] i8 v,h,dc,ddl,ddr,vr,hd,vl,hu:  0%  1% 94%  1%  1%  0%  1%  1%  1%\n[libx264 @ 000001c4ce240300] i8c dc,h,v,p: 87% 10%  3%  0%\n[libx264 @ 000001c4ce240300] Weighted P-Frames: Y:3.2% UV:0.4%\n[libx264 @ 000001c4ce240300] ref P L0: 57.8%  0.6% 13.8%  7.7%  9.5% 10.3%  0.4%\n[libx264 @ 000001c4ce240300] ref B L0: 77.5% 11.4%  7.8%  3.3%\n[libx264 @ 000001c4ce240300] ref B L1: 91.3%  8.7%\n[libx264 @ 000001c4ce240300] kb/s:1996.77\n",
  "seconds": 11.71815013885498,
  "probe_out": {}
}